<?xml version="1.0" encoding="UTF-8"?>
<svg id="Layer_2" data-name="Layer 2" xmlns="http://www.w3.org/2000/svg" width="371.44" height="244.17" viewBox="0 0 371.44 244.17">
  <g id="Layer_1-2" data-name="Layer 1">
    <path d="m249.41.1c-23.34,0-45.21,6.59-63.74,18,34.96,21.46,58.3,59.97,58.3,104.03s-23.34,82.58-58.3,104.03c18.52,11.41,40.4,18,63.74,18,67.4,0,122.03-54.63,122.03-122.03,0-67.4-54.63-122.03-122.03-122.03Z" style="fill: #1d8bb3;"/>
    <path d="m127.48,122.03c0-43.96,23.34-82.58,58.3-104.03C167.25,6.59,145.37,0,122.03,0,54.63,0,0,54.63,0,122.03s54.63,122.03,122.03,122.03c23.34,0,45.21-6.59,63.74-18-35.06-21.46-58.3-59.97-58.3-104.03Z" style="fill: #d55b27;"/>
    <path d="m243.96,122.03c0-43.96-23.34-82.58-58.3-104.03-34.96,21.46-58.3,59.97-58.3,104.03s23.34,82.58,58.3,104.03c34.96-21.46,58.3-59.97,58.3-104.03Z" style="fill: #ebe3cb;"/>
  </g>
</svg>