<?xml version="1.0" encoding="UTF-8"?>
<svg id="Layer_2" data-name="Layer 2" xmlns="http://www.w3.org/2000/svg" width="1027.63" height="298.32" viewBox="0 0 1027.63 298.32">
  <g id="Layer_1-2" data-name="Layer 1">
    <path d="m249.41,33.35c-23.34,0-45.21,6.59-63.74,18,34.96,21.46,58.3,59.97,58.3,104.03s-23.34,82.58-58.3,104.03c18.52,11.41,40.4,18,63.74,18,67.4,0,122.03-54.63,122.03-122.03,0-67.4-54.63-122.03-122.03-122.03Z" style="fill: #1d8bb3;"/>
    <path d="m127.48,155.28c0-43.96,23.34-82.58,58.3-104.03-18.52-11.41-40.4-18-63.74-18C54.63,33.25,0,87.88,0,155.28s54.63,122.03,122.03,122.03c23.34,0,45.21-6.59,63.74-18-35.06-21.46-58.3-59.97-58.3-104.03Z" style="fill: #d55b27;"/>
    <path d="m243.96,155.28c0-43.96-23.34-82.58-58.3-104.03-34.96,21.46-58.3,59.97-58.3,104.03s23.34,82.58,58.3,104.03c34.96-21.46,58.3-59.97,58.3-104.03Z" style="fill: #ebe3cb;"/>
    <g>
      <path d="m459.12,141.63c-1.62,3.93-3.7,5.32-7.4,5.32s-5.79-1.39-7.4-5.44l-17.47-43.85c-3.36-8.33-8.91-25.11-11.11-32.28.35,7.52,1.74,28.46,1.74,44.77v32.16c0,3.12-2.2,4.63-5.44,4.63s-5.32-1.5-5.32-4.63V62.26c0-4.17,3.01-6.83,7.4-6.83,5.09,0,7.52,1.85,9.26,6.13l21.29,53.45c2.31,5.67,6.13,16.54,7.17,21.52,1.16-5.09,4.63-15.16,7.29-21.75l20.94-52.99c1.85-4.63,4.51-6.36,9.6-6.36,4.28,0,7.29,2.66,7.29,6.83v80.06c0,3.12-2.31,4.63-5.32,4.63s-5.44-1.5-5.44-4.63v-32.05c0-16.43,1.39-37.14,1.85-45-2.2,7.4-7.87,23.95-10.99,31.82l-17.93,44.54Z" style="fill: #d55b27;"/>
      <path d="m527.95,132.49c0,2.66,1.74,3.7,4.28,3.7h41.42c3.01,0,4.63,2.08,4.63,4.97s-1.62,5.09-4.63,5.09h-44.77c-8.21,0-11.8-3.59-11.8-12.38v-65.25c0-8.91,3.59-12.5,11.8-12.5h43.73c3.01,0,4.63,2.08,4.63,4.98s-1.62,5.09-4.63,5.09h-40.72c-2.78,0-3.93,1.27-3.93,4.05v23.95h39.45c2.89,0,4.51,2.08,4.51,4.97,0,2.66-1.74,4.86-4.51,4.86h-39.45v28.46Z" style="fill: #d55b27;"/>
      <path d="m660.65,140.12c.23.69.35,1.27.35,1.97,0,2.2-1.5,3.93-3.82,4.51-.81.23-1.74.35-2.55.35-1.97,0-3.7-.92-4.51-3.01l-2.89-7.4c-8.33-22.56-11.57-30.77-23.14-30.77h-21.29v36.33c0,3.24-2.2,4.86-5.32,4.86s-5.55-1.62-5.55-4.97v-73.35c0-8.91,3.59-12.5,11.8-12.5h27.07c16.78,0,26.03,8.91,26.03,23.14,0,13.3-7.52,20.25-18.28,22.56,6.94,2.08,10.64,9.83,19.21,31.47l2.89,6.83Zm-31.24-43.85c9.83,0,16.31-6.13,16.31-15.39,0-9.83-5.32-15.16-15.62-15.16h-23.49c-2.43,0-3.82,1.27-3.82,4.05v26.49h26.61Z" style="fill: #d55b27;"/>
      <path d="m736.08,113.28c0-1.97-.58-3.24-3.01-3.24h-15.16c-3.12,0-4.63-1.97-4.63-4.86s1.5-5.09,4.63-5.09h18.63c6.83,0,9.49,3.01,9.49,10.07v32.62c0,3.36-1.85,4.98-4.86,4.98s-4.97-1.62-4.97-4.28v-3.01c0-1.16.12-3.24.35-4.74-.81,1.39-2.2,3.47-3.36,4.4-4.63,4.28-12.26,7.87-21.17,7.87-25.45,0-40.61-18.86-40.61-46.86s15.04-46.74,40.26-46.74c19.32,0,28.46,10.64,32.51,19.32.46.93.58,1.62.58,2.43,0,2.31-1.74,3.93-3.59,4.63-.92.35-1.97.58-2.89.58-1.97,0-3.7-.81-4.74-3.12-3.12-6.94-8.91-13.77-21.75-13.77-17.7,0-28.81,14.35-28.81,36.79s11.92,36.67,29.27,36.67c12.84,0,23.83-8.56,23.83-22.1v-2.55Z" style="fill: #d55b27;"/>
      <path d="m774.61,132.49c0,2.66,1.74,3.7,4.28,3.7h41.42c3.01,0,4.63,2.08,4.63,4.97s-1.62,5.09-4.63,5.09h-44.77c-8.21,0-11.8-3.59-11.8-12.38v-65.25c0-8.91,3.59-12.5,11.8-12.5h43.73c3.01,0,4.63,2.08,4.63,4.98s-1.62,5.09-4.63,5.09h-40.72c-2.78,0-3.93,1.27-3.93,4.05v23.95h39.45c2.89,0,4.51,2.08,4.51,4.97,0,2.66-1.74,4.86-4.51,4.86h-39.45v28.46Z" style="fill: #d55b27;"/>
      <path d="m440.95,205.42c18.05,3.82,27.88,9.95,27.88,26.72,0,14.92-11.45,26.15-32.16,26.15-26.38,0-31.82-13.65-34.59-23.02-.12-.58-.23-1.04-.23-1.5,0-2.54,1.97-4.28,4.4-4.86.69-.12,1.27-.23,1.97-.23,2.2,0,4.4,1.04,5.09,3.47,2.08,7.75,5.9,16.43,22.79,16.43,13.19,0,21.4-6.36,21.4-16.31s-5.21-13.65-18.86-16.43l-9.26-1.97c-17.35-3.59-25.22-10.18-25.22-25.34,0-12.15,9.02-23.95,30.77-23.95s28,11.11,30.54,19.44c.23.58.35,1.16.35,1.74,0,2.43-1.97,4.17-4.28,4.63-.58.12-1.27.23-1.97.23-2.08,0-4.17-.93-5.09-3.36-1.85-6.59-6.71-13.07-19.55-13.07s-19.55,6.71-19.55,14.35c0,8.33,4.05,12.61,17.01,15.16l8.56,1.74Z" style="fill: #1d8bb3;"/>
      <path d="m481.79,176.5c-2.89,0-4.51-2.31-4.51-4.98s1.62-5.21,4.4-5.21h63.75c2.78,0,4.4,2.43,4.4,5.21s-1.74,4.98-4.4,4.98h-26.26v75.89c0,3.12-2.43,4.74-5.55,4.74s-5.55-1.62-5.55-4.74v-75.89h-26.26Z" style="fill: #1d8bb3;"/>
      <path d="m631.27,250.31c.23.69.35,1.27.35,1.97,0,2.2-1.5,3.93-3.82,4.51-.81.23-1.74.35-2.55.35-1.97,0-3.7-.93-4.51-3.01l-2.89-7.4c-8.33-22.56-11.57-30.77-23.14-30.77h-21.29v36.33c0,3.24-2.2,4.86-5.32,4.86s-5.55-1.62-5.55-4.97v-73.35c0-8.91,3.59-12.5,11.8-12.5h27.07c16.78,0,26.03,8.91,26.03,23.14,0,13.3-7.52,20.25-18.28,22.56,6.94,2.08,10.64,9.83,19.21,31.47l2.89,6.83Zm-31.24-43.85c9.83,0,16.31-6.13,16.31-15.39,0-9.83-5.32-15.16-15.62-15.16h-23.49c-2.43,0-3.82,1.27-3.82,4.05v26.49h26.61Z" style="fill: #1d8bb3;"/>
      <path d="m650.7,253.89c-.81,2.31-2.54,3.24-4.51,3.24-.81,0-1.5-.12-2.31-.35-2.31-.58-4.05-2.55-4.05-4.74,0-.69.12-1.27.35-1.97l31.47-79.02c1.5-3.93,4.4-5.44,7.98-5.44s6.71,1.5,8.21,5.44l31.47,79.25c.35.69.46,1.27.46,1.97,0,2.31-1.85,4.05-4.17,4.63-.69.23-1.39.35-2.08.35-2.08,0-3.93-1.04-4.74-3.24l-9.14-23.95h-40.03l-8.91,23.83Zm45.47-33.55l-12.84-33.67c-1.27-3.36-2.54-7.06-3.59-10.99-1.04,3.93-2.2,7.64-3.59,11.11l-13.07,33.55h33.09Z" style="fill: #1d8bb3;"/>
      <path d="m717.34,176.5c-2.89,0-4.51-2.31-4.51-4.98s1.62-5.21,4.4-5.21h63.75c2.78,0,4.4,2.43,4.4,5.21s-1.74,4.98-4.4,4.98h-26.26v75.89c0,3.12-2.43,4.74-5.55,4.74s-5.55-1.62-5.55-4.74v-75.89h-26.26Z" style="fill: #1d8bb3;"/>
      <path d="m808.97,242.67c0,2.66,1.74,3.7,4.28,3.7h41.42c3.01,0,4.63,2.08,4.63,4.97s-1.62,5.09-4.63,5.09h-44.77c-8.21,0-11.8-3.59-11.8-12.38v-65.25c0-8.91,3.59-12.5,11.8-12.5h43.73c3.01,0,4.63,2.08,4.63,4.98s-1.62,5.09-4.63,5.09h-40.72c-2.78,0-3.93,1.27-3.93,4.05v23.95h39.45c2.89,0,4.51,2.08,4.51,4.97,0,2.66-1.74,4.86-4.51,4.86h-39.45v28.46Z" style="fill: #1d8bb3;"/>
      <path d="m933.8,223.47c0-1.97-.58-3.24-3.01-3.24h-15.16c-3.12,0-4.63-1.97-4.63-4.86s1.5-5.09,4.63-5.09h18.63c6.83,0,9.49,3.01,9.49,10.07v32.62c0,3.36-1.85,4.97-4.86,4.97s-4.97-1.62-4.97-4.28v-3.01c0-1.16.12-3.24.35-4.74-.81,1.39-2.2,3.47-3.36,4.4-4.63,4.28-12.26,7.87-21.17,7.87-25.45,0-40.61-18.86-40.61-46.85s15.04-46.74,40.26-46.74c19.32,0,28.46,10.64,32.51,19.32.46.92.58,1.62.58,2.43,0,2.31-1.74,3.93-3.59,4.63-.92.35-1.97.58-2.89.58-1.97,0-3.7-.81-4.74-3.12-3.12-6.94-8.91-13.77-21.75-13.77-17.7,0-28.81,14.35-28.81,36.79s11.92,36.67,29.27,36.67c12.84,0,23.83-8.56,23.83-22.1v-2.54Z" style="fill: #1d8bb3;"/>
      <path d="m1013.17,167.93c1.04-1.74,2.55-2.43,4.17-2.43,1.04,0,2.08.35,3.12.93,1.74.93,3.12,2.66,3.12,4.63,0,.81-.23,1.74-.81,2.54l-30.54,45.81v32.97c0,3.12-2.31,4.74-5.44,4.74-3.35,0-5.55-1.62-5.55-4.74v-32.97l-30.77-46.04c-.46-.81-.69-1.5-.69-2.31,0-1.97,1.5-3.7,3.36-4.74,1.04-.46,2.08-.81,3.12-.81,1.5,0,3.01.69,4.17,2.43l26.38,41.19,26.38-41.19Z" style="fill: #1d8bb3;"/>
    </g>
  </g>
</svg>